<svg width="30" height="31" viewBox="0 0 30 31" fill="none" xmlns="http://www.w3.org/2000/svg">
<g filter="url(#filter0_d_204_258)">
<path fill-rule="evenodd" clip-rule="evenodd" d="M4 4C4 2.34315 5.34315 1 7 1H10.7639C11.9002 1 12.939 1.64201 13.4472 2.65836L14.3416 4.44721C14.511 4.786 14.8573 5 15.2361 5H23C24.6569 5 26 6.34315 26 8V20C26 21.6569 24.6569 23 23 23H7C5.34315 23 4 21.6569 4 20V4ZM7 3C6.44772 3 6 3.44772 6 4V20C6 20.5523 6.44772 21 7 21H23C23.5523 21 24 20.5523 24 20V8C24 7.44772 23.5523 7 23 7H15.2361C14.0998 7 13.061 6.35799 12.5528 5.34164L11.6584 3.55279C11.489 3.214 11.1427 3 10.7639 3H7Z" fill="#0F0F0F"/>
<path d="M14.5425 11.4142C14.152 11.0237 14.152 10.3905 14.5425 10C14.9331 9.60948 15.5662 9.60948 15.9568 10L18.4925 12.5357C18.8952 12.9384 19.0903 13.4701 19.0777 13.9978C19.072 14.2377 19.0234 14.4768 18.9318 14.7025C18.8342 14.9433 18.6877 15.1689 18.4925 15.3641L15.9142 17.9424C15.5237 18.3329 14.8905 18.3329 14.5 17.9424C14.1095 17.5519 14.1095 16.9187 14.5 16.5282L16.0282 15H12C11.4477 15 11 14.5523 11 14C11 13.4477 11.4477 13 12 13H16.1283L14.5425 11.4142Z" fill="#0F0F0F"/>
</g>
<defs>
<filter id="filter0_d_204_258" x="-1" y="0" width="32" height="32" filterUnits="userSpaceOnUse" color-interpolation-filters="sRGB">
<feFlood flood-opacity="0" result="BackgroundImageFix"/>
<feColorMatrix in="SourceAlpha" type="matrix" values="0 0 0 0 0 0 0 0 0 0 0 0 0 0 0 0 0 0 127 0" result="hardAlpha"/>
<feOffset dy="4"/>
<feGaussianBlur stdDeviation="2"/>
<feComposite in2="hardAlpha" operator="out"/>
<feColorMatrix type="matrix" values="0 0 0 0 0 0 0 0 0 0 0 0 0 0 0 0 0 0 0.25 0"/>
<feBlend mode="normal" in2="BackgroundImageFix" result="effect1_dropShadow_204_258"/>
<feBlend mode="normal" in="SourceGraphic" in2="effect1_dropShadow_204_258" result="shape"/>
</filter>
</defs>
</svg>
